<svg xmlns="http://www.w3.org/2000/svg" viewBox="0 0 600 600" width="600" height="600"><defs><linearGradient id="g" x1="0" y1="0" x2="1" y2="1"><stop offset="0" stop-color="#6d28d9"/><stop offset="1" stop-color="#f5d0fe"/></linearGradient><linearGradient id="s" x1="0" y1="0.55" x2="0" y2="1"><stop offset="0" stop-color="#12061f" stop-opacity="0"/><stop offset="1" stop-color="#12061f" stop-opacity=".78"/></linearGradient></defs><rect width="600" height="600" fill="url(#g)"/><line x1="100" y1="0" x2="100" y2="600" stroke="#3b0764" stroke-width="1.5" opacity=".35"/><line x1="0" y1="100" x2="600" y2="100" stroke="#3b0764" stroke-width="1.5" opacity=".35"/><line x1="200" y1="0" x2="200" y2="600" stroke="#3b0764" stroke-width="1.5" opacity=".35"/><line x1="0" y1="200" x2="600" y2="200" stroke="#3b0764" stroke-width="1.5" opacity=".35"/><line x1="300" y1="0" x2="300" y2="600" stroke="#3b0764" stroke-width="1.5" opacity=".35"/><line x1="0" y1="300" x2="600" y2="300" stroke="#3b0764" stroke-width="1.5" opacity=".35"/><line x1="400" y1="0" x2="400" y2="600" stroke="#3b0764" stroke-width="1.5" opacity=".35"/><line x1="0" y1="400" x2="600" y2="400" stroke="#3b0764" stroke-width="1.5" opacity=".35"/><line x1="500" y1="0" x2="500" y2="600" stroke="#3b0764" stroke-width="1.5" opacity=".35"/><line x1="0" y1="500" x2="600" y2="500" stroke="#3b0764" stroke-width="1.5" opacity=".35"/><circle cx="400" cy="300" r="34" fill="#3b0764"/><rect width="600" height="600" fill="url(#s)"/><g font-family="Arial, Helvetica, sans-serif" fill="#fff"><text x="36" y="474" font-size="42" font-weight="700">Terlalu Lama</text><text x="36" y="520" font-size="42" font-weight="700">Sendiri</text><text x="36" y="578" font-size="22" opacity=".8">Kunto Aji</text></g></svg>