<svg xmlns="http://www.w3.org/2000/svg" viewBox="0 0 600 600" width="600" height="600"><defs><linearGradient id="g" x1="0" y1="0" x2="1" y2="1"><stop offset="0" stop-color="#4c1d95"/><stop offset="1" stop-color="#e879f9"/></linearGradient><linearGradient id="s" x1="0" y1="0.55" x2="0" y2="1"><stop offset="0" stop-color="#12061f" stop-opacity="0"/><stop offset="1" stop-color="#12061f" stop-opacity=".78"/></linearGradient></defs><rect width="600" height="600" fill="url(#g)"/><rect x="20" y="230" width="73" height="240" fill="#4c1d95" opacity=".85"/><rect x="30" y="246" width="8" height="12" fill="#ffffff" opacity=".8"/><rect x="30" y="276" width="8" height="12" fill="#ffffff" opacity=".8"/><rect x="30" y="306" width="8" height="12" fill="#ffffff" opacity=".8"/><rect x="30" y="336" width="8" height="12" fill="#ffffff" opacity=".8"/><rect x="30" y="366" width="8" height="12" fill="#ffffff" opacity=".8"/><rect x="30" y="396" width="8" height="12" fill="#ffffff" opacity=".8"/><rect x="30" y="426" width="8" height="12" fill="#ffffff" opacity=".8"/><rect x="30" y="456" width="8" height="12" fill="#ffffff" opacity=".8"/><rect x="101" y="278" width="80" height="192" fill="#4c1d95" opacity=".85"/><rect x="111" y="294" width="8" height="12" fill="#ffffff" opacity=".8"/><rect x="111" y="324" width="8" height="12" fill="#ffffff" opacity=".8"/><rect x="111" y="354" width="8" height="12" fill="#ffffff" opacity=".8"/><rect x="111" y="384" width="8" height="12" fill="#ffffff" opacity=".8"/><rect x="111" y="414" width="8" height="12" fill="#ffffff" opacity=".8"/><rect x="111" y="444" width="8" height="12" fill="#ffffff" opacity=".8"/><rect x="189" y="292" width="76" height="178" fill="#4c1d95" opacity=".85"/><rect x="199" y="308" width="8" height="12" fill="#ffffff" opacity=".8"/><rect x="199" y="338" width="8" height="12" fill="#ffffff" opacity=".8"/><rect x="199" y="368" width="8" height="12" fill="#ffffff" opacity=".8"/><rect x="199" y="398" width="8" height="12" fill="#ffffff" opacity=".8"/><rect x="199" y="428" width="8" height="12" fill="#ffffff" opacity=".8"/><rect x="199" y="458" width="8" height="12" fill="#ffffff" opacity=".8"/><rect x="273" y="349" width="78" height="121" fill="#4c1d95" opacity=".85"/><rect x="283" y="365" width="8" height="12" fill="#ffffff" opacity=".8"/><rect x="283" y="395" width="8" height="12" fill="#ffffff" opacity=".8"/><rect x="283" y="425" width="8" height="12" fill="#ffffff" opacity=".8"/><rect x="283" y="455" width="8" height="12" fill="#ffffff" opacity=".8"/><rect x="359" y="132" width="76" height="338" fill="#4c1d95" opacity=".85"/><rect x="369" y="148" width="8" height="12" fill="#ffffff" opacity=".8"/><rect x="369" y="178" width="8" height="12" fill="#ffffff" opacity=".8"/><rect x="369" y="208" width="8" height="12" fill="#ffffff" opacity=".8"/><rect x="369" y="238" width="8" height="12" fill="#ffffff" opacity=".8"/><rect x="369" y="268" width="8" height="12" fill="#ffffff" opacity=".8"/><rect x="369" y="298" width="8" height="12" fill="#ffffff" opacity=".8"/><rect x="369" y="328" width="8" height="12" fill="#ffffff" opacity=".8"/><rect x="369" y="358" width="8" height="12" fill="#ffffff" opacity=".8"/><rect x="369" y="388" width="8" height="12" fill="#ffffff" opacity=".8"/><rect x="369" y="418" width="8" height="12" fill="#ffffff" opacity=".8"/><rect x="369" y="448" width="8" height="12" fill="#ffffff" opacity=".8"/><rect x="443" y="290" width="66" height="180" fill="#4c1d95" opacity=".85"/><rect x="453" y="306" width="8" height="12" fill="#ffffff" opacity=".8"/><rect x="453" y="336" width="8" height="12" fill="#ffffff" opacity=".8"/><rect x="453" y="366" width="8" height="12" fill="#ffffff" opacity=".8"/><rect x="453" y="396" width="8" height="12" fill="#ffffff" opacity=".8"/><rect x="453" y="426" width="8" height="12" fill="#ffffff" opacity=".8"/><rect x="453" y="456" width="8" height="12" fill="#ffffff" opacity=".8"/><rect x="517" y="294" width="90" height="176" fill="#4c1d95" opacity=".85"/><rect x="527" y="310" width="8" height="12" fill="#ffffff" opacity=".8"/><rect x="527" y="340" width="8" height="12" fill="#ffffff" opacity=".8"/><rect x="527" y="370" width="8" height="12" fill="#ffffff" opacity=".8"/><rect x="527" y="400" width="8" height="12" fill="#ffffff" opacity=".8"/><rect x="527" y="430" width="8" height="12" fill="#ffffff" opacity=".8"/><rect width="600" height="600" fill="url(#s)"/><g font-family="Arial, Helvetica, sans-serif" fill="#fff"><text x="36" y="474" font-size="42" font-weight="700">Kota Ini Tak</text><text x="36" y="520" font-size="42" font-weight="700">Sama Tanpamu</text><text x="36" y="578" font-size="22" opacity=".8">Nadhif Basalamah</text></g></svg>